<svg xmlns="http://www.w3.org/2000/svg" viewBox="0 0 967.16 1500"><defs><style>.cls-1{fill:#fff;}</style></defs><g id="Logos"><path class="cls-1" d="M501,558.38c-253.51-5-470.23,202.56-474.92,454.91-5,268,197.6,481.32,462.15,486.62,257.69,5.16,474.3-202.25,478.92-458.56C972,775.19,767.79,563.65,501,558.38ZM136.43,674.05c91-86.59,200.59-134.94,323.89-152.54,64.1-9.15,116.33-36.34,151.21-91.7,71.36-113.23,40.88-275.5-66.2-360.33C470.93,10.55,385.6-6.84,293.5,2.28,208,10.74,131.9,39.9,76.21,109.07,20,178.86.53,260.92.3,348.54Q-.4,612-.08,875.41c0,7.67.8,15.34,1.23,23l4.58-.33c1.63-5.15,3.43-10.26,4.86-15.47C32.93,801.24,75.54,732,136.43,674.05Z"/></g></svg>