<svg xmlns="http://www.w3.org/2000/svg" viewBox="0 0 2979.88 1500"><defs><style>.cls-1{fill:#3960a9;}</style></defs><g id="Logos"><path class="cls-1" d="M501.09,558.38c266.79,5.27,471,216.81,466.16,483-4.62,256.31-221.24,463.72-478.92,458.56-264.56-5.3-467.14-218.61-462.16-486.62C30.87,760.94,247.58,553.36,501.09,558.38Z"/><path class="cls-1" d="M1.23,898.42C.8,890.75,0,883.08,0,875.41Q.06,612,.38,348.54c.23-87.62,19.73-169.68,75.91-239.47C132,39.9,208.12,10.74,293.59,2.28,385.68-6.84,471,10.55,545.41,69.48,652.49,154.31,683,316.58,611.62,429.81c-34.89,55.36-87.12,82.55-151.22,91.7-123.3,17.6-232.85,66-323.89,152.54C75.62,732,33,801.24,10.67,882.62c-1.43,5.21-3.23,10.32-4.86,15.47Z"/><path class="cls-1" d="M1681.38,590.81q64.93-19.21,104-68.53t39.08-123.84q0-101-72.74-159.91t-201.39-58.91H1261.77A91.38,91.38,0,0,0,1170.39,271V932.27a91.39,91.39,0,0,0,91.38,91.38h301.78q132.26,0,206.2-61.92T1843.69,794q0-73.32-44.48-130.45T1681.38,590.81ZM1376,344.33h134.66q50.5,0,77.55,22.85t27,66.12q0,43.29-27,65.53t-77.55,22.24H1376Zm231.45,490q-28.26,23.44-80,23.44H1376V671.36h149.09q51.68,0,81.16,25.25t29.45,69.74Q1635.69,810.84,1607.44,834.28Zm469.5-700.35H2054.1a91.38,91.38,0,0,0-91.38,91.38v707a91.38,91.38,0,0,0,91.38,91.38h22.84a91.38,91.38,0,0,0,91.38-91.38v-707A91.38,91.38,0,0,0,2076.94,133.93ZM2888.5,352.75h-22.84a91.38,91.38,0,0,0-91.38,91.38V717.05q0,67.35-34.86,104.6t-95,37.28q-58.92,0-93.78-37.28t-34.87-104.6V444.13a91.38,91.38,0,0,0-91.37-91.38h-21.64a91.38,91.38,0,0,0-91.38,91.38V744.71q0,87.78,32.46,152.69t91.38,99.19q58.89,34.27,135.86,34.27,64.92,0,118.43-27t84.76-71.54a91.38,91.38,0,0,0,91.38,91.38h22.84a91.38,91.38,0,0,0,91.38-91.38V444.13A91.38,91.38,0,0,0,2888.5,352.75Z"/><path class="cls-1" d="M1875.68,1162.82H1846v28.88H1832V1216H1846v56.3q0,36.26,37.32,36.26h18.55v-24.88h-13.7q-6.75,0-9.59-2.64t-2.85-8.53V1216h26.14V1191.7h-26.14Zm47.43,145.69h29.52V1191.7h-29.52Zm-131-111.54a61.45,61.45,0,0,0-29.84-7.17q-17.28,0-30.57,7.38a51.45,51.45,0,0,0-20.66,21.09q-7.4,13.71-7.38,31.84,0,17.92,7.48,31.62a52.78,52.78,0,0,0,20.87,21.2,61,61,0,0,0,30.26,7.48q20.88,0,35.21-10.86a53.18,53.18,0,0,0,19.4-27.73H1785q-7,14.13-23.41,14.13a27.31,27.31,0,0,1-19.19-7.17q-7.8-7.15-8.85-19.82H1819a69.94,69.94,0,0,0,.84-11.39q0-17.07-7.27-30.25A50.47,50.47,0,0,0,1792.08,1197Zm-58.3,42.17q1.68-11.81,9.17-18.45t18.45-6.64q11.6,0,19.61,6.85t8.22,18.24Zm-201.36-29.31V1191.7H1502.9v116.81h29.52v-58.2q0-16.23,7.06-22.76t21-6.54h7.8v-31a40.68,40.68,0,0,0-35.84,19.82Zm-88.13-1.47a46.63,46.63,0,0,0-15.71-13.29q-9.81-5.27-22.88-5.27a51.21,51.21,0,0,0-27.1,7.38,51.84,51.84,0,0,0-19.18,21.09q-7.07,13.71-7.07,31.41,0,17.92,7.07,31.74a53.17,53.17,0,0,0,19.18,21.4,49.68,49.68,0,0,0,26.89,7.59,48,48,0,0,0,23.09-5.38,44,44,0,0,0,15.71-13.6v17.08H1474V1191.7h-29.72Zm-4.22,60.19a29.73,29.73,0,0,1-11.39,11.81,30.45,30.45,0,0,1-15.39,4.12,28.9,28.9,0,0,1-15.07-4.22,31.06,31.06,0,0,1-11.39-12.13,37.85,37.85,0,0,1-4.32-18.45,36.66,36.66,0,0,1,4.32-18.23,30.37,30.37,0,0,1,41.85-11.6,29.8,29.8,0,0,1,11.39,11.81q4.22,7.69,4.22,18.45T1440.07,1268.55Zm255.12-76.85h-38.37l-39.22,49.55v-88.77h-29.52v156h29.52v-49.76l39.64,49.76h38.37l-51.87-58.2Zm-444.46,79.07-46.81-109.43h-33.53v147.17h29.52v-95.73l39.64,95.73h22.35l39.43-95.73v95.73h29.52V1161.34h-33.31Zm687.36-127.57a18,18,0,0,0-13,5,17.3,17.3,0,0,0,0,24.67,19.45,19.45,0,0,0,25.93,0,17.3,17.3,0,0,0,0-24.67A18,18,0,0,0,1938.09,1143.2ZM2760,1162.82h-29.73v28.88h-13.92V1216h13.92v56.3q0,36.26,37.32,36.26h18.55v-24.88h-13.7q-6.75,0-9.59-2.64t-2.85-8.53V1216h26.14V1191.7H2760Zm-78-19.62a18,18,0,0,0-13,5,17.3,17.3,0,0,0,0,24.67,19.45,19.45,0,0,0,25.93,0,17.3,17.3,0,0,0,0-24.67A18,18,0,0,0,2682,1143.2ZM2046.46,1190a46.62,46.62,0,0,0-20.13,4.33,40.76,40.76,0,0,0-15.08,11.91V1191.7h-29.52v116.81h29.52V1244q0-13.92,7.06-21.4t19.3-7.49q12,0,19,7.49t7,21.4v64.52h29.52V1240q0-23.62-12.86-36.8T2046.46,1190Zm845.29,18.35a46.53,46.53,0,0,0-15.71-13.29q-9.81-5.27-22.88-5.27a51.15,51.15,0,0,0-27.09,7.38,51.79,51.79,0,0,0-19.19,21.09q-7.07,13.71-7.06,31.41,0,17.92,7.06,31.74a53.12,53.12,0,0,0,19.19,21.4,49.63,49.63,0,0,0,26.88,7.59A48,48,0,0,0,2876,1305a44,44,0,0,0,15.71-13.6v17.08h29.73V1191.7h-29.73Zm-4.22,60.19a29.71,29.71,0,0,1-11.38,11.81,30.51,30.51,0,0,1-15.4,4.12,28.93,28.93,0,0,1-15.07-4.22,31.13,31.13,0,0,1-11.39-12.13,37.85,37.85,0,0,1-4.32-18.45,36.66,36.66,0,0,1,4.32-18.23,29.66,29.66,0,0,1,26.46-15.71,30.5,30.5,0,0,1,15.4,4.11,29.78,29.78,0,0,1,11.38,11.81q4.21,7.69,4.22,18.45T2887.53,1268.55Zm62.83-116.07v156h29.52v-156Zm-342,55.88a42.29,42.29,0,0,0-15.6-13.39q-9.92-5.17-23-5.17a51.15,51.15,0,0,0-27.09,7.38,51.79,51.79,0,0,0-19.19,21.09q-7.07,13.71-7.06,31.41,0,17.92,7.06,31.74a52.92,52.92,0,0,0,19.29,21.4,50.19,50.19,0,0,0,27,7.59,46.92,46.92,0,0,0,22.88-5.48,44.94,44.94,0,0,0,15.71-13.71v18.13q0,15.6-8,23.3t-20.88,7.7q-11,0-18.66-4.75a21.78,21.78,0,0,1-10-12.75H2521.5q2.1,20,18,31.63t40.8,11.59q18.54,0,31.62-7.48a48.53,48.53,0,0,0,19.61-20.24q6.54-12.76,6.54-29V1191.7h-29.73Zm-4.22,60.19a29.71,29.71,0,0,1-11.38,11.81,30.49,30.49,0,0,1-15.4,4.12,28.93,28.93,0,0,1-15.07-4.22,31.13,31.13,0,0,1-11.39-12.13,37.85,37.85,0,0,1-4.32-18.45,36.66,36.66,0,0,1,4.32-18.23,29.66,29.66,0,0,1,26.46-15.71,30.48,30.48,0,0,1,15.4,4.11,29.78,29.78,0,0,1,11.38,11.81q4.21,7.69,4.22,18.45T2604.15,1268.55Zm62.83,40h29.52V1191.7H2667Zm-260.5-138.11q-17.61-9.06-40.8-9.06h-51.45v147.17h51.45q23.21,0,40.8-9.07a65.11,65.11,0,0,0,27.2-25.62q9.59-16.54,9.6-38.69t-9.6-38.89A64.81,64.81,0,0,0,2406.48,1170.4Zm-6,100.37q-12.64,12.64-35.84,12.65h-20.88v-97.2h20.88q23.19,0,35.84,13t12.65,35.94Q2413.12,1258.13,2400.47,1270.77Zm-195-62.41a42.29,42.29,0,0,0-15.6-13.39q-9.91-5.17-23-5.17a51.15,51.15,0,0,0-27.09,7.38,51.86,51.86,0,0,0-19.19,21.09q-7.07,13.71-7.06,31.41,0,17.92,7.06,31.74a52.87,52.87,0,0,0,19.3,21.4,50.14,50.14,0,0,0,27,7.59,46.92,46.92,0,0,0,22.88-5.48,44.85,44.85,0,0,0,15.71-13.71v18.13q0,15.6-8,23.3t-20.88,7.7q-11,0-18.66-4.75a21.78,21.78,0,0,1-10-12.75h-29.31q2.1,20,18,31.63t40.8,11.59q18.54,0,31.62-7.48a48.53,48.53,0,0,0,19.61-20.24q6.54-12.76,6.54-29V1191.7h-29.73Zm-4.22,60.19a29.71,29.71,0,0,1-11.38,11.81,30.45,30.45,0,0,1-15.39,4.12,28.93,28.93,0,0,1-15.08-4.22,31.13,31.13,0,0,1-11.39-12.13,37.85,37.85,0,0,1-4.32-18.45,36.66,36.66,0,0,1,4.32-18.23,30.38,30.38,0,0,1,41.86-11.6,29.78,29.78,0,0,1,11.38,11.81q4.22,7.69,4.22,18.45T2201.22,1268.55Zm264.19,40h29.52V1191.7h-29.52Zm15-165.31a18,18,0,0,0-13,5,17.3,17.3,0,0,0,0,24.67,19.45,19.45,0,0,0,25.93,0,17.3,17.3,0,0,0,0-24.67A18,18,0,0,0,2480.39,1143.2Z"/></g></svg>