<svg id="Logo_completo" data-name="Logo completo" xmlns="http://www.w3.org/2000/svg" viewBox="0 0 2000 2000"><defs><style>.cls-1{fill:#fff;}.cls-2{fill:#3960a9;}</style></defs><circle class="cls-1" cx="1000" cy="1000" r="1000"/><path class="cls-2" d="M381.64,880.17c166.83,3.3,294.5,135.58,291.5,302-2.89,160.28-138.34,290-299.48,286.75-165.44-3.31-292.12-136.7-289-304.3C87.59,1006.84,223.11,877,381.64,880.17Z"/><path class="cls-2" d="M69.06,1092.81c-.27-4.8-.77-9.59-.77-14.39q0-164.73.24-329.47c.15-54.79,12.33-106.1,47.47-149.75,34.82-43.25,82.43-61.48,135.88-66.77,57.59-5.7,111,5.16,157.48,42,67,53,86,154.52,41.39,225.32-21.81,34.62-54.47,51.62-94.55,57.35-77.11,11-145.61,41.24-202.54,95.39C115.58,988.72,88.93,1032,75,1082.93c-.89,3.26-2,6.45-3,9.68Z"/><path class="cls-2" d="M1119.71,900.45q40.61-12,65-42.85t24.44-77.44q0-63.17-45.49-100t-125.94-36.84H857.32a57.14,57.14,0,0,0-57.14,57.14V1114a57.14,57.14,0,0,0,57.14,57.14H1046q82.71,0,129-38.72t46.23-104.88q0-45.85-27.81-81.58T1119.71,900.45Zm-191-154.13H1013q31.58,0,48.5,14.29T1078.36,802q0,27.07-16.91,41T1013,856.85h-84.2Zm144.73,306.38q-17.68,14.67-50,14.66H928.75V950.83H1022q32.33,0,50.75,15.79t18.42,43.6Q1091.14,1038,1073.48,1052.7Zm293.59-437.95h-14.28a57.15,57.15,0,0,0-57.15,57.14V1114a57.15,57.15,0,0,0,57.15,57.14h14.28a57.14,57.14,0,0,0,57.14-57.14V671.89A57.14,57.14,0,0,0,1367.07,614.75Zm507.5,136.84h-14.29a57.14,57.14,0,0,0-57.14,57.14V979.4q0,42.11-21.8,65.41t-59.4,23.31q-36.84,0-58.64-23.31t-21.81-65.41V808.73a57.14,57.14,0,0,0-57.14-57.14h-13.53a57.14,57.14,0,0,0-57.14,57.14v188q0,54.88,20.3,95.49t57.14,62q36.83,21.43,85,21.43,40.61,0,74.06-16.92t53-44.73a57.14,57.14,0,0,0,57.14,57.14h14.29a57.14,57.14,0,0,0,57.14-57.14V808.73A57.14,57.14,0,0,0,1874.57,751.59Z"/><path class="cls-2" d="M1188.94,1279.51a41.45,41.45,0,0,0-37.78.13,32.23,32.23,0,0,0-12.92,13.18,41.34,41.34,0,0,0-4.62,19.91,40.59,40.59,0,0,0,4.69,19.78,32.84,32.84,0,0,0,13,13.25,38.11,38.11,0,0,0,18.92,4.68q13,0,22-6.79a33.21,33.21,0,0,0,12.13-17.34h-19.91q-4.35,8.84-14.64,8.84a17.06,17.06,0,0,1-12-4.49q-4.89-4.47-5.54-12.39h53.4a43.7,43.7,0,0,0,.53-7.12,38.52,38.52,0,0,0-4.55-18.92A31.64,31.64,0,0,0,1188.94,1279.51Zm-36.46,26.37q1.05-7.39,5.74-11.54a16.71,16.71,0,0,1,11.53-4.15,18.28,18.28,0,0,1,12.27,4.28,14.69,14.69,0,0,1,5.14,11.41Zm118.4,43.38h18.46v-73h-18.46Zm-29.67-91.11h-18.59v18.06h-8.7v15.16h8.7v35.21q0,22.68,23.34,22.68h11.6V1333.7H1249q-4.21,0-6-1.65t-1.79-5.34v-35.34h16.35v-15.16h-16.35Zm39-12.27a11.27,11.27,0,0,0-8.11,3.1,10.83,10.83,0,0,0,0,15.43,12.16,12.16,0,0,0,16.22,0,10.83,10.83,0,0,0,0-15.43A11.29,11.29,0,0,0,1280.24,1245.88Zm633,5.81v97.57h18.46v-97.57Zm-941.8,34.94a29,29,0,0,0-9.82-8.31,29.76,29.76,0,0,0-14.31-3.3,31.9,31.9,0,0,0-16.94,4.62,32.34,32.34,0,0,0-12,13.18,42.26,42.26,0,0,0-4.42,19.65,42.91,42.91,0,0,0,4.42,19.84,33.19,33.19,0,0,0,12,13.39,31.07,31.07,0,0,0,16.81,4.74,30.09,30.09,0,0,0,14.44-3.36,27.52,27.52,0,0,0,9.82-8.5v10.68H990v-73H971.45Zm-2.64,37.64a18.55,18.55,0,0,1-7.12,7.38,19,19,0,0,1-9.62,2.58,18.09,18.09,0,0,1-9.43-2.64,19.53,19.53,0,0,1-7.12-7.58,23.71,23.71,0,0,1-2.7-11.54,23,23,0,0,1,2.7-11.41,18.58,18.58,0,0,1,16.55-9.82,19,19,0,0,1,9.62,2.57,18.64,18.64,0,0,1,7.12,7.39,26.52,26.52,0,0,1,0,23.07Zm776.6-78.39a11.26,11.26,0,0,0-8.11,3.1,10.83,10.83,0,0,0,0,15.43,12.16,12.16,0,0,0,16.22,0,10.83,10.83,0,0,0,0-15.43A11.29,11.29,0,0,0,1745.41,1245.88Zm-895,79.77-29.27-68.43h-21v92h18.46v-59.87l24.79,59.87h14l24.66-59.87v59.87h18.46v-92H879.68Zm176.15-38.1v-11.34H1008.1v73h18.46v-36.4q0-10.14,4.42-14.23t13.12-4.09H1049v-19.38a25.39,25.39,0,0,0-22.42,12.39Zm101.79-11.34h-24l-24.53,31v-55.5h-18.46v97.57h18.46v-31.12l24.79,31.12h24l-32.44-36.4Zm571,10.42a26.44,26.44,0,0,0-9.76-8.38,30.69,30.69,0,0,0-14.37-3.23,31.9,31.9,0,0,0-16.94,4.62,32.34,32.34,0,0,0-12,13.18,42.38,42.38,0,0,0-4.42,19.65,43,43,0,0,0,4.42,19.84,33.06,33.06,0,0,0,12.07,13.39,31.37,31.37,0,0,0,16.87,4.74,29.4,29.4,0,0,0,14.31-3.42,28.1,28.1,0,0,0,9.82-8.58v11.34q0,9.77-5,14.57t-13.05,4.82a21.81,21.81,0,0,1-11.67-3,13.62,13.62,0,0,1-6.26-8h-18.33a26.89,26.89,0,0,0,11.27,19.78q10,7.24,25.51,7.25,11.61,0,19.78-4.68a30.3,30.3,0,0,0,12.26-12.66,39.13,39.13,0,0,0,4.09-18.13v-73.57h-18.59Zm-2.64,37.64a18.55,18.55,0,0,1-7.12,7.38,19,19,0,0,1-9.62,2.58,18.09,18.09,0,0,1-9.43-2.64,19.53,19.53,0,0,1-7.12-7.58,23.71,23.71,0,0,1-2.7-11.54,23,23,0,0,1,2.7-11.41,18.9,18.9,0,0,1,7.06-7.31,18.68,18.68,0,0,1,9.49-2.51,19,19,0,0,1,9.62,2.57,18.64,18.64,0,0,1,7.12,7.39,26.52,26.52,0,0,1,0,23.07Zm97.44-66.12H1775.6v18.06h-8.7v15.16h8.7v35.21q0,22.68,23.34,22.68h11.6V1333.7H1802q-4.21,0-6-1.65c-1.18-1.1-1.78-2.88-1.78-5.34v-35.34h16.35v-15.16h-16.35Zm-58.14,91.11h18.45v-73h-18.45Zm-116.69-103.38a11.26,11.26,0,0,0-8.11,3.1,10.83,10.83,0,0,0,0,15.43,12.16,12.16,0,0,0,16.22,0,10.83,10.83,0,0,0,0-15.43A11.29,11.29,0,0,0,1619.36,1245.88Zm-171.93,40.75a26.6,26.6,0,0,0-9.76-8.38,30.69,30.69,0,0,0-14.37-3.23,31.93,31.93,0,0,0-17,4.62,32.38,32.38,0,0,0-12,13.18,42.26,42.26,0,0,0-4.42,19.65,42.91,42.91,0,0,0,4.42,19.84,33,33,0,0,0,12.06,13.39,31.4,31.4,0,0,0,16.88,4.74,29.33,29.33,0,0,0,14.3-3.42,28.13,28.13,0,0,0,9.83-8.58v11.34q0,9.77-5,14.57t-13.06,4.82a21.81,21.81,0,0,1-11.67-3,13.66,13.66,0,0,1-6.26-8H1393.1a26.9,26.9,0,0,0,11.28,19.78q9.94,7.24,25.51,7.25,11.59,0,19.78-4.68a30.36,30.36,0,0,0,12.26-12.66,39.25,39.25,0,0,0,4.09-18.13v-73.57h-18.59Zm-2.64,37.64a18.55,18.55,0,0,1-7.12,7.38,19,19,0,0,1-9.63,2.58,18,18,0,0,1-9.42-2.64,19.46,19.46,0,0,1-7.12-7.58,23.6,23.6,0,0,1-2.71-11.54,22.9,22.9,0,0,1,2.71-11.41,18.55,18.55,0,0,1,16.54-9.82,19.09,19.09,0,0,1,9.63,2.57,18.64,18.64,0,0,1,7.12,7.39,26.52,26.52,0,0,1,0,23.07Zm165.21,25h18.46v-73H1610Zm-262-74.1a29.17,29.17,0,0,0-12.59,2.7,25.45,25.45,0,0,0-9.43,7.45v-9.1h-18.46v73H1326v-40.35q0-8.7,4.42-13.38c2.94-3.12,7-4.69,12.06-4.69s9,1.57,11.87,4.69,4.35,7.58,4.35,13.38v40.35h18.46v-42.85q0-14.78-8-23T1348,1275.16Zm528.59,11.47a29.06,29.06,0,0,0-9.83-8.31,29.69,29.69,0,0,0-14.3-3.3,32,32,0,0,0-17,4.62,32.38,32.38,0,0,0-12,13.18,42.26,42.26,0,0,0-4.42,19.65,42.91,42.91,0,0,0,4.42,19.84,33.24,33.24,0,0,0,12,13.39,31.1,31.1,0,0,0,16.82,4.74,30,30,0,0,0,14.43-3.36,27.55,27.55,0,0,0,9.83-8.5v10.68h18.59v-73H1876.6Zm-2.64,37.64a18.55,18.55,0,0,1-7.12,7.38,19,19,0,0,1-9.63,2.58,18,18,0,0,1-9.42-2.64,19.46,19.46,0,0,1-7.12-7.58,23.6,23.6,0,0,1-2.7-11.54,22.9,22.9,0,0,1,2.7-11.41,18.55,18.55,0,0,1,16.54-9.82,19.09,19.09,0,0,1,9.63,2.57,18.64,18.64,0,0,1,7.12,7.39,26.52,26.52,0,0,1,0,23.07Zm-300.82-61.38q-11-5.66-25.51-5.67h-32.17v92h32.17q14.5,0,25.51-5.67a40.75,40.75,0,0,0,17-16q6-10.35,6-24.2t-6-24.32A40.52,40.52,0,0,0,1573.14,1262.89Zm-3.75,62.76q-7.92,7.92-22.42,7.92h-13v-60.79h13q14.51,0,22.42,8.11t7.91,22.48Q1577.3,1317.74,1569.39,1325.65Z"/></svg>