<svg xmlns="http://www.w3.org/2000/svg" viewBox="0 0 2000 2000"><defs><style>.cls-1{fill:#fff;}.cls-2{fill:#3960a9;}</style></defs><g id="Logo_minimalista" data-name="Logo minimalista"><circle class="cls-1" cx="1000" cy="1000" r="1000"/><path class="cls-2" d="M652.85,924.05c91-86.59,200.58-134.94,323.89-152.54,64.1-9.15,116.32-36.34,151.21-91.7,71.36-113.23,40.88-275.5-66.2-360.33-74.4-58.93-159.73-76.32-251.83-67.2-85.47,8.46-161.6,37.62-217.29,106.79C536.44,428.86,517,510.92,516.72,598.54Q516,862,516.34,1125.41c0,7.67.8,15.34,1.23,23l4.58-.33c1.63-5.15,3.42-10.26,4.85-15.47C549.35,1051.24,592,982,652.85,924.05Zm364.58-115.67c-253.52-5-470.23,202.56-474.92,454.91-5,268,197.6,481.32,462.15,486.62,257.68,5.16,474.3-202.25,478.92-458.56C1488.38,1025.19,1284.21,813.65,1017.43,808.38Z"/></g></svg>