<svg xmlns="http://www.w3.org/2000/svg" viewBox="0 0 2979.88 1500"><defs><style>.cls-1{fill:#3960a9;}</style></defs><g id="Logos"><path class="cls-1" d="M501.09,558.38c266.79,5.27,471,216.81,466.16,483-4.62,256.31-221.24,463.72-478.92,458.56-264.56-5.3-467.14-218.61-462.16-486.62C30.87,760.94,247.58,553.36,501.09,558.38Z"/><path class="cls-1" d="M1.23,898.42C.8,890.75,0,883.08,0,875.41Q.06,612,.38,348.54c.23-87.62,19.73-169.68,75.91-239.47C132,39.9,208.12,10.74,293.59,2.28,385.68-6.84,471,10.55,545.41,69.48,652.49,154.31,683,316.58,611.62,429.81c-34.89,55.36-87.12,82.55-151.22,91.7-123.3,17.6-232.85,66-323.89,152.54C75.62,732,33,801.24,10.67,882.62c-1.43,5.21-3.23,10.32-4.86,15.47Z"/><path class="cls-1" d="M1681.38,758.42q64.92-19.23,104-68.54T1824.46,566q0-101-72.74-159.9t-201.39-58.92H1261.77a91.38,91.38,0,0,0-91.38,91.38v661.27a91.38,91.38,0,0,0,91.38,91.38h301.78q132.26,0,206.2-61.92t73.94-167.72q0-73.32-44.48-130.45T1681.38,758.42ZM1376,511.94h134.66q50.5,0,77.55,22.84t27,66.13q0,43.29-27,65.53t-77.55,22.24H1376Zm231.45,490q-28.26,23.45-80,23.44H1376V839h149.09q51.68,0,81.16,25.25T1635.69,934Q1635.69,978.45,1607.44,1001.89Z"/><rect class="cls-1" x="1962.72" y="301.53" width="205.6" height="889.72" rx="91.38"/><path class="cls-1" d="M2888.5,520.36h-22.84a91.38,91.38,0,0,0-91.38,91.37V884.66q0,67.35-34.86,104.6t-95,37.27q-58.92,0-93.78-37.27t-34.87-104.6V611.73a91.37,91.37,0,0,0-91.37-91.37h-21.64a91.38,91.38,0,0,0-91.38,91.37V912.31q0,87.78,32.46,152.7t91.38,99.19q58.89,34.26,135.86,34.27,64.92,0,118.43-27.06t84.76-71.54a91.38,91.38,0,0,0,91.38,91.38h22.84a91.38,91.38,0,0,0,91.38-91.38V611.73A91.38,91.38,0,0,0,2888.5,520.36Z"/></g></svg>