<svg xmlns="http://www.w3.org/2000/svg" viewBox="0 0 2000 2000"><defs><style>.cls-1{fill:#fff;}.cls-2{fill:#3960a9;}</style></defs><g id="Logo_simple" data-name="Logo simple"><circle class="cls-1" cx="1000" cy="1000" r="1000"/><path class="cls-2" d="M381.64,880.17c166.83,3.3,294.5,135.58,291.5,302-2.89,160.28-138.34,290-299.48,286.75-165.44-3.31-292.12-136.7-289-304.3C87.59,1006.84,223.11,877,381.64,880.17Z"/><path class="cls-2" d="M69.06,1092.81c-.27-4.8-.77-9.59-.77-14.39q0-164.73.24-329.47c.15-54.79,12.33-106.1,47.47-149.75,34.82-43.25,82.43-61.48,135.88-66.77,57.59-5.7,111,5.16,157.48,42,67,53,86,154.52,41.39,225.32-21.81,34.62-54.47,51.62-94.55,57.35-77.11,11-145.61,41.24-202.54,95.39C115.58,988.72,88.93,1032,75,1082.93c-.89,3.26-2,6.45-3,9.68Z"/><path class="cls-2" d="M1119.71,1005.26q40.61-12,65-42.85T1209.19,885q0-63.16-45.49-100t-125.94-36.84H857.32a57.14,57.14,0,0,0-57.14,57.14v413.52a57.14,57.14,0,0,0,57.14,57.14H1046q82.71,0,129-38.72t46.23-104.89q0-45.84-27.81-81.57T1119.71,1005.26Zm-191-154.13H1013q31.58,0,48.5,14.29t16.91,41.35q0,27.06-16.91,41t-48.5,13.9H928.74Zm144.74,306.38q-17.68,14.67-50,14.66H928.74V1055.64H1022q32.33,0,50.75,15.79t18.42,43.6Q1091.14,1142.86,1073.48,1157.51Z"/><rect class="cls-2" x="1295.64" y="719.56" width="128.57" height="556.37" rx="57.14"/><path class="cls-2" d="M1874.57,856.4h-14.29a57.14,57.14,0,0,0-57.14,57.14v170.67q0,42.11-21.8,65.41t-59.4,23.31q-36.84,0-58.64-23.31t-21.81-65.41V913.54a57.14,57.14,0,0,0-57.14-57.14h-13.53a57.14,57.14,0,0,0-57.14,57.14v188q0,54.88,20.3,95.48t57.14,62q36.83,21.43,85,21.43,40.61,0,74.06-16.92t53-44.73a57.14,57.14,0,0,0,57.14,57.14h14.29a57.14,57.14,0,0,0,57.14-57.14V913.54A57.14,57.14,0,0,0,1874.57,856.4Z"/></g></svg>